<svg width="303" height="52" viewBox="0 0 303 52" fill="none" xmlns="http://www.w3.org/2000/svg">
<circle cx="26" cy="26" r="26" fill="#5370D5"/>
<circle r="18.5" transform="matrix(1 0 0 -1 26.5 21.5)" fill="url(#paint0_linear)"/>
<circle cx="26.5" cy="18.5" r="16.5" fill="#C4C4C4"/>
<circle cx="26.5" cy="18.5" r="16.5" fill="url(#paint1_linear)"/>
<path d="M82.2603 19.6757H75.0796V38.6486H68.2158V19.6757H61V13.7027H82.2603V19.6757Z" fill="#5370D5"/>
<path d="M96.4562 25.8595C95.1656 25.8595 93.9923 26 92.9363 26.2811C91.8804 26.5622 91.0942 27.0306 90.578 27.6865V38.6486H83.8902V20.1676H90.0148V23.6811C90.6718 22.4396 91.4932 21.491 92.4787 20.8351C93.4643 20.1559 94.5086 19.8162 95.6115 19.8162C95.8696 19.8162 96.0456 19.8162 96.1394 19.8162C96.2568 19.8162 96.3624 19.8279 96.4562 19.8514V25.8595Z" fill="#5370D5"/>
<path d="M97.3065 33.0622C97.3065 31.8207 97.6468 30.7315 98.3273 29.7946C99.0078 28.8342 99.9465 28.0847 101.143 27.5459C102.363 27.0072 103.748 26.7378 105.297 26.7378C106.024 26.7378 106.705 26.7964 107.338 26.9135C107.995 27.0306 108.559 27.2063 109.028 27.4405V26.8784C109.028 26.0117 108.77 25.3676 108.253 24.9459C107.761 24.5243 106.951 24.3135 105.825 24.3135C104.792 24.3135 103.818 24.4892 102.903 24.8405C102.011 25.1685 101.073 25.6604 100.087 26.3162L98.1513 22.1703C99.395 21.3739 100.697 20.7883 102.058 20.4135C103.443 20.0153 104.921 19.8162 106.493 19.8162C109.427 19.8162 111.691 20.4838 113.287 21.8189C114.906 23.1306 115.716 25.0865 115.716 27.6865V31.2703C115.716 31.9027 115.81 32.3477 115.997 32.6054C116.185 32.8396 116.514 32.9802 116.983 33.027V38.6486C116.443 38.7658 115.927 38.8477 115.434 38.8946C114.965 38.9649 114.542 39 114.167 39C112.97 39 112.055 38.7892 111.421 38.3676C110.811 37.9225 110.412 37.2784 110.225 36.4351L110.084 35.7676C109.262 36.8216 108.312 37.6297 107.233 38.1919C106.153 38.7306 105.003 39 103.783 39C102.563 39 101.46 38.7423 100.474 38.227C99.4889 37.7117 98.7145 37.009 98.1513 36.1189C97.5881 35.2054 97.3065 34.1865 97.3065 33.0622ZM108.148 33.5189C108.406 33.3315 108.617 33.1324 108.781 32.9216C108.946 32.6874 109.028 32.4532 109.028 32.2189V30.8486C108.652 30.7081 108.218 30.591 107.725 30.4973C107.256 30.4036 106.834 30.3568 106.458 30.3568C105.66 30.3568 104.98 30.5559 104.417 30.9541C103.877 31.3523 103.607 31.8559 103.607 32.4649C103.607 32.7928 103.701 33.0973 103.889 33.3784C104.076 33.636 104.335 33.8468 104.663 34.0108C104.992 34.1514 105.367 34.2216 105.79 34.2216C106.188 34.2216 106.599 34.1631 107.021 34.0459C107.467 33.9054 107.843 33.7297 108.148 33.5189Z" fill="#5370D5"/>
<path d="M123.184 38.6486L116.954 20.1676H123.818L127.126 32.7108L130.47 20.1676H136.7L130.47 38.6486H123.184Z" fill="#5370D5"/>
<path d="M146.94 39C145.321 39 143.877 38.7541 142.61 38.2622C141.343 37.7468 140.275 37.0559 139.407 36.1892C138.562 35.3225 137.917 34.327 137.471 33.2027C137.025 32.0784 136.802 30.8955 136.802 29.6541C136.802 27.8739 137.19 26.2459 137.964 24.7703C138.738 23.2712 139.876 22.0766 141.378 21.1865C142.88 20.273 144.734 19.8162 146.94 19.8162C149.146 19.8162 150.999 20.2613 152.501 21.1514C154.003 22.0414 155.141 23.2126 155.916 24.6649C156.69 26.1171 157.077 27.6982 157.077 29.4081C157.077 29.7595 157.054 30.1225 157.007 30.4973C156.983 30.8486 156.948 31.1649 156.901 31.4459H143.913C143.96 32.1018 144.136 32.6405 144.441 33.0622C144.769 33.4604 145.168 33.7532 145.637 33.9405C146.13 34.1279 146.635 34.2216 147.151 34.2216C147.878 34.2216 148.559 34.0577 149.192 33.7297C149.85 33.4018 150.284 32.945 150.495 32.3595L156.162 33.9757C155.669 34.9595 154.977 35.8261 154.085 36.5757C153.217 37.3252 152.184 37.9225 150.988 38.3676C149.791 38.7892 148.442 39 146.94 39ZM143.772 27.4405H149.896C149.826 26.8315 149.65 26.3162 149.368 25.8946C149.11 25.473 148.758 25.145 148.313 24.9108C147.89 24.6766 147.397 24.5595 146.834 24.5595C146.271 24.5595 145.766 24.6766 145.321 24.9108C144.898 25.145 144.546 25.473 144.265 25.8946C144.006 26.3162 143.842 26.8315 143.772 27.4405Z" fill="#5370D5"/>
<path d="M159.132 13H165.82V31.3054C165.82 31.9847 165.96 32.5117 166.242 32.8865C166.547 33.2378 166.981 33.4135 167.544 33.4135C167.826 33.4135 168.131 33.3667 168.46 33.273C168.788 33.1793 169.093 33.0505 169.375 32.8865L170.22 37.8054C169.422 38.1802 168.518 38.473 167.509 38.6838C166.524 38.8946 165.585 39 164.693 39C162.91 39 161.537 38.5432 160.575 37.6297C159.613 36.6928 159.132 35.3694 159.132 33.6595V13Z" fill="#5370D5"/>
<path d="M189.803 38.8595C188.324 38.8595 187.022 38.5667 185.896 37.9811C184.793 37.3955 183.854 36.6108 183.08 35.627C182.329 34.6432 181.754 33.5423 181.355 32.3243C180.979 31.0829 180.792 29.818 180.792 28.5297C180.792 27.1243 181.015 25.7189 181.46 24.3135C181.906 22.8847 182.54 21.5261 183.361 20.2378C184.183 18.9495 185.168 17.8135 186.318 16.8297C187.468 15.8225 188.758 15.0261 190.19 14.4405C191.621 13.855 193.17 13.5622 194.836 13.5622C197.042 13.5622 198.778 14.0775 200.046 15.1081C201.336 16.1387 202.181 17.4387 202.58 19.0081L201.031 19.7811C200.703 18.6333 200.21 17.7198 199.553 17.0405C198.919 16.3613 198.18 15.8928 197.335 15.6351C196.49 15.3541 195.587 15.2135 194.625 15.2135C192.795 15.2135 191.14 15.6117 189.662 16.4081C188.183 17.2045 186.916 18.2468 185.86 19.5351C184.828 20.8234 184.018 22.2523 183.432 23.8216C182.868 25.3676 182.587 26.9018 182.587 28.4243C182.587 29.9937 182.88 31.4459 183.467 32.7811C184.077 34.1162 184.933 35.1937 186.036 36.0135C187.163 36.8099 188.524 37.2081 190.119 37.2081C191.058 37.2081 192.044 37.0441 193.076 36.7162C194.109 36.3649 195.106 35.8378 196.068 35.1351C197.054 34.409 197.934 33.4721 198.708 32.3243L200.116 33.0622C199.295 34.3505 198.297 35.4279 197.124 36.2946C195.974 37.1613 194.766 37.8054 193.499 38.227C192.231 38.6486 190.999 38.8595 189.803 38.8595Z" fill="#5370D5"/>
<path d="M208.148 13H209.908L207.409 24.7351C208.418 23.3063 209.638 22.1703 211.069 21.327C212.501 20.4838 213.944 20.0622 215.399 20.0622C216.361 20.0622 217.147 20.2495 217.757 20.6243C218.391 20.9991 218.848 21.5378 219.13 22.2405C219.435 22.9432 219.587 23.7982 219.587 24.8054C219.587 25.2973 219.552 25.8243 219.482 26.3865C219.435 26.9486 219.341 27.5342 219.2 28.1432L216.983 38.6486H215.223L217.37 28.4595C217.487 27.8973 217.569 27.3703 217.616 26.8784C217.687 26.3865 217.722 25.9414 217.722 25.5432C217.722 24.255 217.452 23.2946 216.912 22.6622C216.373 22.0063 215.575 21.6784 214.519 21.6784C213.604 21.6784 212.653 21.9243 211.668 22.4162C210.682 22.9081 209.755 23.5874 208.887 24.4541C208.042 25.2973 207.362 26.2577 206.845 27.3351L204.452 38.6486H202.692L208.148 13Z" fill="#5370D5"/>
<path d="M229.54 39C227.991 39 226.701 38.6604 225.668 37.9811C224.659 37.2784 223.897 36.3532 223.38 35.2054C222.864 34.0342 222.606 32.7577 222.606 31.3757C222.606 29.8063 222.888 28.3423 223.451 26.9838C224.037 25.6018 224.824 24.3955 225.809 23.3649C226.795 22.3342 227.921 21.5261 229.188 20.9405C230.479 20.355 231.816 20.0622 233.201 20.0622C234.75 20.0622 236.04 20.4135 237.073 21.1162C238.105 21.8189 238.868 22.7559 239.361 23.927C239.877 25.0748 240.135 26.3514 240.135 27.7568C240.135 29.3027 239.854 30.755 239.29 32.1135C238.727 33.4721 237.953 34.6784 236.967 35.7324C235.982 36.7631 234.855 37.5712 233.588 38.1568C232.321 38.7189 230.972 39 229.54 39ZM229.857 37.4189C230.936 37.4189 231.981 37.1847 232.99 36.7162C233.999 36.2477 234.902 35.5919 235.7 34.7486C236.521 33.882 237.167 32.8865 237.636 31.7622C238.105 30.6144 238.34 29.373 238.34 28.0378C238.34 26.8432 238.129 25.7658 237.706 24.8054C237.308 23.845 236.709 23.0838 235.911 22.5216C235.113 21.936 234.116 21.6432 232.919 21.6432C231.84 21.6432 230.796 21.8892 229.787 22.3811C228.778 22.8495 227.862 23.5171 227.041 24.3838C226.243 25.2505 225.61 26.2577 225.14 27.4054C224.671 28.5532 224.436 29.7946 224.436 31.1297C224.436 32.3009 224.636 33.3667 225.035 34.327C225.434 35.2874 226.032 36.0486 226.83 36.6108C227.651 37.1495 228.66 37.4189 229.857 37.4189Z" fill="#5370D5"/>
<path d="M247.68 39C246.295 39 245.028 38.7658 243.878 38.2973C242.752 37.8288 241.837 37.1261 241.133 36.1892L242.224 34.9946C242.998 35.8613 243.843 36.5054 244.758 36.927C245.673 37.3486 246.706 37.5595 247.856 37.5595C249.005 37.5595 250.015 37.3838 250.883 37.0324C251.774 36.6811 252.478 36.1775 252.995 35.5216C253.511 34.8658 253.769 34.1045 253.769 33.2378C253.769 32.3009 253.358 31.6333 252.537 31.2351C251.716 30.8369 250.542 30.427 249.017 30.0054C247.938 29.7009 247.023 29.4198 246.272 29.1622C245.544 28.8811 244.993 28.518 244.617 28.073C244.265 27.6279 244.089 27.0189 244.089 26.2459C244.089 24.9108 244.43 23.7865 245.11 22.873C245.814 21.9595 246.741 21.2685 247.891 20.8C249.041 20.3081 250.308 20.0622 251.692 20.0622C253.1 20.0622 254.274 20.3081 255.212 20.8C256.174 21.2685 256.855 21.8775 257.254 22.627L256.092 23.5757C255.693 22.873 255.083 22.3577 254.262 22.0297C253.441 21.6784 252.514 21.5027 251.481 21.5027C250.542 21.5027 249.639 21.655 248.771 21.9595C247.903 22.264 247.199 22.7324 246.659 23.3649C246.119 23.9973 245.849 24.8054 245.849 25.7892C245.849 26.609 246.154 27.1946 246.764 27.5459C247.398 27.8739 248.395 28.2135 249.756 28.5649C250.953 28.8928 251.986 29.2324 252.854 29.5838C253.722 29.9117 254.391 30.3333 254.86 30.8486C255.33 31.364 255.564 32.0667 255.564 32.9568C255.564 34.1748 255.224 35.2405 254.543 36.1541C253.886 37.0676 252.96 37.7703 251.763 38.2622C250.589 38.7541 249.228 39 247.68 39Z" fill="#5370D5"/>
<path d="M262.25 20.3784H264.01L260.138 38.6486H258.378L262.25 20.3784ZM263.834 13H265.594L264.925 16.2324H263.165L263.834 13Z" fill="#5370D5"/>
<path d="M272.886 39C271.455 39 270.223 38.6604 269.19 37.9811C268.158 37.2784 267.36 36.3414 266.797 35.1703C266.257 33.9991 265.987 32.6991 265.987 31.2703C265.987 29.7477 266.269 28.3189 266.832 26.9838C267.418 25.6486 268.205 24.4658 269.19 23.4351C270.199 22.3811 271.349 21.5613 272.64 20.9757C273.954 20.3667 275.338 20.0622 276.793 20.0622C278.412 20.0622 279.738 20.4486 280.771 21.2216C281.827 21.9712 282.519 23.0018 282.847 24.3135L280.982 24.8757C280.7 23.845 280.172 23.0486 279.398 22.4865C278.624 21.9243 277.697 21.6432 276.617 21.6432C275.491 21.6432 274.4 21.8892 273.344 22.3811C272.288 22.873 271.349 23.5523 270.528 24.4189C269.706 25.2856 269.038 26.2811 268.521 27.4054C268.029 28.5297 267.782 29.7243 267.782 30.9892C267.782 32.2072 268.005 33.2964 268.451 34.2568C268.92 35.2171 269.542 35.9901 270.317 36.5757C271.114 37.1378 272.03 37.4189 273.062 37.4189C273.883 37.4189 274.705 37.2667 275.526 36.9622C276.347 36.6342 277.086 36.2126 277.744 35.6973C278.424 35.182 278.917 34.6315 279.222 34.0459L280.841 34.5378C280.372 35.4045 279.715 36.1775 278.87 36.8568C278.025 37.5126 277.075 38.0396 276.019 38.4378C274.986 38.8126 273.942 39 272.886 39Z" fill="#5370D5"/>
<path d="M290.786 39C289.448 39 288.287 38.6487 287.301 37.9459C286.339 37.2198 285.588 36.2712 285.048 35.1C284.532 33.9288 284.274 32.664 284.274 31.3054C284.274 29.8766 284.556 28.4946 285.119 27.1595C285.682 25.8243 286.433 24.6297 287.372 23.5757C288.334 22.4982 289.425 21.6432 290.645 21.0108C291.865 20.3784 293.144 20.0622 294.482 20.0622C296.007 20.0622 297.263 20.4838 298.248 21.327C299.234 22.1703 299.938 23.1775 300.36 24.3486L301.205 20.3784H303L299.621 36.1189C299.597 36.1892 299.574 36.2595 299.55 36.3297C299.55 36.4 299.55 36.4703 299.55 36.5405C299.55 36.8919 299.75 37.0676 300.149 37.0676L299.797 38.6486C299.656 38.6486 299.527 38.6604 299.41 38.6838C299.292 38.7072 299.187 38.7072 299.093 38.6838C298.671 38.6604 298.354 38.5315 298.143 38.2973C297.931 38.0631 297.826 37.782 297.826 37.4541C297.826 37.3369 297.837 37.2081 297.861 37.0676C297.884 36.927 297.92 36.7045 297.967 36.4C298.037 36.0721 298.131 35.6036 298.248 34.9946C297.309 36.2126 296.16 37.1847 294.799 37.9108C293.461 38.6369 292.123 39 290.786 39ZM291.419 37.4189C292.077 37.4189 292.769 37.2901 293.496 37.0324C294.247 36.7748 294.963 36.4234 295.643 35.9784C296.347 35.5099 296.957 34.9829 297.474 34.3973C298.013 33.7883 298.401 33.1559 298.635 32.5L299.902 26.4919C299.785 25.6252 299.48 24.8288 298.987 24.1027C298.495 23.3766 297.861 22.791 297.087 22.3459C296.336 21.8775 295.491 21.6432 294.552 21.6432C293.449 21.6432 292.382 21.9243 291.349 22.4865C290.34 23.0486 289.437 23.7865 288.639 24.7C287.864 25.6135 287.243 26.6324 286.773 27.7568C286.327 28.8577 286.104 29.9703 286.104 31.0946C286.104 32.2423 286.327 33.2964 286.773 34.2568C287.243 35.1937 287.876 35.955 288.674 36.5405C289.472 37.1261 290.387 37.4189 291.419 37.4189Z" fill="#5370D5"/>
<defs>
<linearGradient id="paint0_linear" x1="18.5" y1="0" x2="18.5" y2="37" gradientUnits="userSpaceOnUse">
<stop stop-color="#761BA2" stop-opacity="0.69"/>
<stop offset="1" stop-color="#761BA2" stop-opacity="0"/>
</linearGradient>
<linearGradient id="paint1_linear" x1="26.5" y1="2" x2="26.5" y2="35" gradientUnits="userSpaceOnUse">
<stop stop-color="white"/>
<stop offset="1" stop-color="white" stop-opacity="0"/>
</linearGradient>
</defs>
</svg>
