<svg width="100" height="100" viewBox="0 0 100 100" fill="none" xmlns="http://www.w3.org/2000/svg">
<path d="M63.2947 67.1899C62.6571 66.7386 61.8119 67.1946 61.1722 67.1976C60.3437 67.1968 59.5493 66.8673 58.9634 66.2814C58.3776 65.6955 58.0481 64.9011 58.0472 64.0726C58.7818 61.2683 57.2793 61.0421 54.9221 60.9476C42.5169 61.3855 42.5154 79.2595 54.9224 79.6976C57.4079 79.6949 59.7909 78.7062 61.5484 76.9487C63.306 75.1911 64.2945 72.8081 64.2972 70.3226C64.2201 69.3477 64.3158 67.8031 63.2947 67.1899ZM54.9222 76.5725C53.2743 76.5578 51.6989 75.8928 50.5388 74.7223C49.3788 73.5518 48.7279 71.9705 48.7279 70.3225C48.7279 68.6746 49.3788 67.0933 50.5388 65.9228C51.6989 64.7523 53.2743 64.0873 54.9222 64.0725C54.9241 65.7296 55.5832 67.3182 56.7549 68.4899C57.9266 69.6616 59.5152 70.3206 61.1722 70.3225C61.1703 71.9796 60.5113 73.5682 59.3396 74.7399C58.1679 75.9116 56.5793 76.5706 54.9222 76.5725V76.5725Z" fill="#5370D5"/>
<path d="M88.918 40.6694C88.8409 40.4681 88.7231 40.285 88.5718 40.1316C88.4206 39.9781 88.2392 39.8575 88.0391 39.7775L66.7035 31.257C66.4216 31.1493 66.1146 31.125 65.8192 31.187C65.5239 31.249 65.2526 31.3946 65.0377 31.6066C64.8228 31.8185 64.6734 32.0877 64.6073 32.3822C64.5412 32.6767 64.5613 32.984 64.665 33.2674L67.8492 41.5723L63.1826 46.3205C62.9127 46.6043 62.7552 46.9764 62.7392 47.3677C62.7233 47.759 62.85 48.1427 63.0959 48.4475H33.0472C32.2187 48.4484 31.4243 48.7779 30.8384 49.3637C30.2526 49.9496 29.9231 50.744 29.9222 51.5725V79.6975H20.5472C20.2659 79.7012 19.9907 79.7802 19.7502 79.9263C19.5098 80.0724 19.313 80.2804 19.1802 80.5284C19.0475 80.7765 18.9837 81.0556 18.9954 81.3368C19.0072 81.6179 19.0942 81.8907 19.2472 82.1268L23.8777 89.0725H4.92222C4.51201 89.0789 4.12076 89.2463 3.83293 89.5387C3.5451 89.831 3.38378 90.2248 3.38379 90.6351C3.3838 91.0453 3.54515 91.4391 3.833 91.7315C4.12085 92.0238 4.51211 92.1912 4.92232 92.1975H87.7347C88.1449 92.1912 88.5362 92.0237 88.824 91.7314C89.1118 91.4391 89.2732 91.0453 89.2732 90.635C89.2731 90.2247 89.1118 89.8309 88.8239 89.5386C88.5361 89.2463 88.1448 89.0789 87.7346 89.0725H79.9222V65.5154C80.2237 65.6993 80.5787 65.7756 80.9291 65.7318C81.2795 65.6879 81.6047 65.5266 81.8517 65.2742L86.5896 60.4286L87.7347 60.8858V70.5445C86.265 70.9247 84.9843 71.8278 84.1327 73.0846C83.2811 74.3414 82.917 75.8656 83.1087 77.3716C83.3003 78.8776 84.0346 80.262 85.1738 81.2655C86.313 82.2689 87.7791 82.8225 89.2972 82.8225C90.8154 82.8225 92.2814 82.2689 93.4206 81.2655C94.5599 80.262 95.2941 78.8776 95.4858 77.3716C95.6774 75.8656 95.3133 74.3414 94.4617 73.0846C93.6101 71.8278 92.3295 70.9247 90.8597 70.5445V62.1338L94.9674 63.7742C95.2493 63.8818 95.5563 63.9061 95.8516 63.8441C96.147 63.7821 96.4183 63.6365 96.6331 63.4246C96.848 63.2127 96.9974 62.9434 97.0635 62.649C97.1296 62.3545 97.1096 62.0472 97.0059 61.7638L88.918 40.6694ZM92.4222 76.5725C92.4103 77.3935 92.0758 78.1767 91.491 78.7531C90.9063 79.3294 90.1182 79.6525 89.2972 79.6525C88.4761 79.6524 87.688 79.3293 87.1033 78.753C86.5186 78.1766 86.1841 77.3933 86.1722 76.5723C86.1841 75.7514 86.5186 74.9681 87.1034 74.3918C87.6882 73.8154 88.4763 73.4924 89.2973 73.4924C90.1184 73.4924 90.9064 73.8155 91.4912 74.3919C92.0759 74.9683 92.4103 75.7516 92.4222 76.5725V76.5725ZM27.6334 89.0725L23.467 82.8225H29.9222V89.0725H27.6334ZM33.0472 89.0725V51.5725H65.1255C68.3006 56.1703 72.2498 60.182 76.7972 63.4289V89.0725L33.0472 89.0725ZM80.499 62.1873C74.733 58.457 69.8694 53.4903 66.261 47.6472L69.0791 44.7802L72.7529 54.3618C72.83 54.5631 72.9478 54.7462 73.0991 54.8997C73.2504 55.0531 73.4317 55.1737 73.6318 55.2537L83.4464 59.1732L80.499 62.1873ZM89.9237 58.3948C87.8324 57.5597 77.721 53.5213 75.4262 52.6048C73.9447 48.7412 70.2968 39.228 68.8611 35.4837L86.2447 42.4264L92.8098 59.5475L89.9237 58.3948ZM26.315 18.712H34.628C35.0372 18.704 35.4268 18.5358 35.7133 18.2437C35.9998 17.9515 36.1603 17.5586 36.1603 17.1494C36.1603 16.7402 35.9998 16.3473 35.7133 16.0552C35.4267 15.763 35.0371 15.5949 34.6279 15.587H26.315C25.9059 15.595 25.5162 15.7631 25.2297 16.0552C24.9432 16.3474 24.7827 16.7403 24.7827 17.1495C24.7827 17.5587 24.9432 17.9516 25.2297 18.2437C25.5162 18.5359 25.9059 18.704 26.315 18.712V18.712ZM26.1266 26.5634H34.0108C34.4199 26.5554 34.8096 26.3873 35.0961 26.0951C35.3826 25.8029 35.5431 25.41 35.5431 25.0008C35.5431 24.5916 35.3825 24.1987 35.096 23.9066C34.8095 23.6145 34.4198 23.4463 34.0107 23.4384H26.1266C25.7174 23.4464 25.3278 23.6145 25.0412 23.9066C24.7547 24.1988 24.5942 24.5917 24.5942 25.0009C24.5942 25.4101 24.7547 25.803 25.0412 26.0951C25.3278 26.3873 25.7174 26.5554 26.1266 26.5634Z" fill="#5370D5"/>
<path d="M8.70334 60.0572H23.8752C24.2586 60.0597 24.6381 59.9804 24.9885 59.8247C25.3388 59.6689 25.6519 59.4402 25.9069 59.1539C26.1864 58.8328 26.3954 58.4567 26.5205 58.0498C26.6456 57.643 26.684 57.2144 26.6332 56.7918C26.2451 52.8113 26.2358 48.8028 26.6055 44.8205H43.8696C44.2736 44.8095 44.6707 44.7127 45.0346 44.5367C45.3984 44.3607 45.7208 44.1094 45.9803 43.7995C46.2398 43.4896 46.4305 43.1281 46.5398 42.739C46.6492 42.3498 46.6746 41.9419 46.6145 41.5422C45.5328 31.3989 46.4467 21.1419 49.3047 11.3496C49.4319 10.926 49.4553 10.4781 49.373 10.0436C49.2907 9.60904 49.1051 9.20069 48.8318 8.85297C48.5585 8.50526 48.2056 8.2284 47.8028 8.04574C47.4001 7.86309 46.9593 7.78001 46.5176 7.80352H21.6024C20.7629 7.78601 19.9458 8.07519 19.3043 8.61688C18.6627 9.15857 18.2406 9.91559 18.1172 10.7461C17.4409 17.0446 17.5135 23.4009 18.3333 29.6823H6.68765C5.84799 29.6676 5.03176 29.9594 4.3918 30.5032C3.75183 31.047 3.33201 31.8054 3.21093 32.6364C2.38677 40.9393 3.11822 49.3232 5.36776 57.3579C5.5659 58.1033 5.99576 58.7664 6.5953 59.2516C7.19484 59.7368 7.93304 60.0189 8.70334 60.0572V60.0572ZM21.2171 11.1108C21.263 11.0529 21.3217 11.0064 21.3885 10.9748C21.4553 10.9432 21.5285 10.9273 21.6024 10.9285L46.1736 10.9323C43.3223 20.9211 42.4091 31.3634 43.4835 41.6955H24.2818C20.6907 31.994 20.3193 21.1539 21.2171 11.1108ZM6.31229 32.9896C6.35697 32.9328 6.41397 32.8869 6.47899 32.8553C6.54401 32.8237 6.61536 32.8073 6.68765 32.8073H18.807C19.3313 35.957 20.0343 39.0743 20.9127 42.1441C21.0921 42.7516 21.4211 43.3043 21.8696 43.7515C22.3181 44.1987 22.8717 44.5262 23.4797 44.7039C23.1134 48.7721 23.1214 52.8654 23.5036 56.9322L8.73998 56.9353C5.90829 49.6964 5.70478 40.634 6.31229 32.9896Z" fill="#5370D5"/>
<path d="M11.0074 40.6007H18.1142C18.5233 40.5928 18.913 40.4246 19.1995 40.1324C19.486 39.8403 19.6465 39.4474 19.6465 39.0382C19.6465 38.629 19.486 38.2361 19.1995 37.944C18.9129 37.6518 18.5232 37.4837 18.1141 37.4757H11.0074C10.5983 37.4837 10.2086 37.6518 9.92211 37.944C9.6356 38.2362 9.4751 38.629 9.4751 39.0382C9.4751 39.4474 9.6356 39.8403 9.92211 40.1325C10.2086 40.4246 10.5983 40.5928 11.0074 40.6007V40.6007ZM18.2195 43.7631H11.4751C11.066 43.7711 10.6763 43.9392 10.3898 44.2314C10.1033 44.5236 9.94282 44.9165 9.94283 45.3257C9.94284 45.7349 10.1034 46.1277 10.3899 46.4199C10.6764 46.712 11.0661 46.8802 11.4752 46.8881H18.2195C18.6286 46.8801 19.0183 46.712 19.3048 46.4199C19.5913 46.1277 19.7518 45.7348 19.7518 45.3256C19.7518 44.9164 19.5913 44.5235 19.3048 44.2314C19.0183 43.9392 18.6286 43.7711 18.2195 43.7631Z" fill="#5370D5"/>
</svg>
