<svg width="100" height="100" viewBox="0 0 100 100" fill="none" xmlns="http://www.w3.org/2000/svg">
<path d="M70.3906 33.1875H78.5469C78.9074 33.1875 79.2532 33.0443 79.5081 32.7893C79.763 32.5344 79.9062 32.1887 79.9062 31.8281V18.2344C79.9062 17.8738 79.763 17.5281 79.5081 17.2732C79.2532 17.0182 78.9074 16.875 78.5469 16.875H21.4531C21.0926 16.875 20.7468 17.0182 20.4919 17.2732C20.237 17.5281 20.0938 17.8738 20.0938 18.2344V31.8281C20.0938 32.1887 20.237 32.5344 20.4919 32.7893C20.7468 33.0443 21.0926 33.1875 21.4531 33.1875H29.6094C29.9699 33.1875 30.3157 33.0443 30.5706 32.7893C30.8255 32.5344 30.9688 32.1887 30.9688 31.8281V27.75H44.5625V71.25H35.0469C34.6863 71.25 34.3406 71.3932 34.0857 71.6482C33.8307 71.9031 33.6875 72.2488 33.6875 72.6094V80.7656C33.6875 81.1262 33.8307 81.4719 34.0857 81.7268C34.3406 81.9818 34.6863 82.125 35.0469 82.125H64.9531C65.3137 82.125 65.6594 81.9818 65.9143 81.7268C66.1693 81.4719 66.3125 81.1262 66.3125 80.7656V72.6094C66.3125 72.2488 66.1693 71.9031 65.9143 71.6482C65.6594 71.3932 65.3137 71.25 64.9531 71.25H55.4375V27.75H69.0312V31.8281C69.0312 32.1887 69.1745 32.5344 69.4294 32.7893C69.6843 33.0443 70.0301 33.1875 70.3906 33.1875ZM54.0781 25.0312C53.7176 25.0312 53.3718 25.1745 53.1169 25.4294C52.862 25.6843 52.7188 26.0301 52.7188 26.3906V72.6094C52.7188 72.9699 52.862 73.3157 53.1169 73.5706C53.3718 73.8255 53.7176 73.9688 54.0781 73.9688H63.5938V79.4062H36.4062V73.9688H45.9219C46.2824 73.9688 46.6282 73.8255 46.8831 73.5706C47.138 73.3157 47.2812 72.9699 47.2812 72.6094V26.3906C47.2812 26.0301 47.138 25.6843 46.8831 25.4294C46.6282 25.1745 46.2824 25.0312 45.9219 25.0312H29.6094C29.2488 25.0312 28.9031 25.1745 28.6482 25.4294C28.3932 25.6843 28.25 26.0301 28.25 26.3906V30.4688H22.8125V19.5938H77.1875V30.4688H71.75V26.3906C71.75 26.0301 71.6068 25.6843 71.3518 25.4294C71.0969 25.1745 70.7512 25.0312 70.3906 25.0312H54.0781ZM7.85938 39.0138C8.2199 39.0138 8.56567 38.8706 8.8206 38.6156C9.07553 38.3607 9.21875 38.0149 9.21875 37.6544V29.4982C9.21875 29.1376 9.07553 28.7919 8.8206 28.5369C8.56567 28.282 8.2199 28.1388 7.85938 28.1388C7.49885 28.1388 7.15308 28.282 6.89815 28.5369C6.64322 28.7919 6.5 29.1376 6.5 29.4982V37.6544C6.5 38.0149 6.64322 38.3607 6.89815 38.6156C7.15308 38.8706 7.49885 39.0138 7.85938 39.0138ZM7.85938 22.7013C8.2199 22.7013 8.56567 22.5581 8.8206 22.3031C9.07553 22.0482 9.21875 21.7024 9.21875 21.3419V13.1857C9.21875 12.8251 9.07553 12.4794 8.8206 12.2244C8.56567 11.9695 8.2199 11.8263 7.85938 11.8263C7.49885 11.8263 7.15308 11.9695 6.89815 12.2244C6.64322 12.4794 6.5 12.8251 6.5 13.1857V21.3419C6.5 21.7024 6.64322 22.0482 6.89815 22.3031C7.15308 22.5581 7.49885 22.7013 7.85938 22.7013ZM7.85938 71.6388C8.2199 71.6388 8.56567 71.4956 8.8206 71.2406C9.07553 70.9857 9.21875 70.6399 9.21875 70.2794V62.1232C9.21875 61.7626 9.07553 61.4169 8.8206 61.1619C8.56567 60.907 8.2199 60.7638 7.85938 60.7638C7.49885 60.7638 7.15308 60.907 6.89815 61.1619C6.64322 61.4169 6.5 61.7626 6.5 62.1232V70.2794C6.5 70.6399 6.64322 70.9857 6.89815 71.2406C7.15308 71.4956 7.49885 71.6388 7.85938 71.6388ZM7.85938 55.3263C8.2199 55.3263 8.56567 55.1831 8.8206 54.9281C9.07553 54.6732 9.21875 54.3274 9.21875 53.9669V45.8107C9.21875 45.4501 9.07553 45.1044 8.8206 44.8494C8.56567 44.5945 8.2199 44.4513 7.85938 44.4513C7.49885 44.4513 7.15308 44.5945 6.89815 44.8494C6.64322 45.1044 6.5 45.4501 6.5 45.8107V53.9669C6.5 54.3274 6.64322 54.6732 6.89815 54.9281C7.15308 55.1831 7.49885 55.3263 7.85938 55.3263ZM7.85938 77.0763C7.49885 77.0763 7.15308 77.2195 6.89815 77.4744C6.64322 77.7294 6.5 78.0751 6.5 78.4357V86.1759C6.5 86.3472 6.5 86.5131 6.5 86.6762C6.52148 87.0219 6.67412 87.3464 6.92676 87.5834C7.17941 87.8204 7.51298 87.9519 7.85938 87.9513H7.95453C8.31388 87.9269 8.64884 87.7608 8.88588 87.4896C9.12291 87.2185 9.24263 86.8643 9.21875 86.5049V78.4329C9.21803 78.0729 9.07449 77.7278 8.81964 77.4735C8.56478 77.2191 8.21943 77.0763 7.85938 77.0763ZM77.772 8.71875H85.9283C86.2888 8.71875 86.6346 8.57553 86.8895 8.3206C87.1444 8.06567 87.2877 7.7199 87.2877 7.35938C87.2877 6.99885 87.1444 6.65308 86.8895 6.39815C86.6346 6.14322 86.2888 6 85.9283 6H77.772C77.4115 6 77.0657 6.14322 76.8108 6.39815C76.5559 6.65308 76.4127 6.99885 76.4127 7.35938C76.4127 7.7199 76.5559 8.06567 76.8108 8.3206C77.0657 8.57553 77.4115 8.71875 77.772 8.71875ZM61.4595 8.71875H69.6158C69.9763 8.71875 70.3221 8.57553 70.577 8.3206C70.8319 8.06567 70.9752 7.7199 70.9752 7.35938C70.9752 6.99885 70.8319 6.65308 70.577 6.39815C70.3221 6.14322 69.9763 6 69.6158 6H61.4595C61.099 6 60.7532 6.14322 60.4983 6.39815C60.2434 6.65308 60.1002 6.99885 60.1002 7.35938C60.1002 7.7199 60.2434 8.06567 60.4983 8.3206C60.7532 8.57553 61.099 8.71875 61.4595 8.71875ZM28.8345 8.71875H36.9908C37.3513 8.71875 37.6971 8.57553 37.952 8.3206C38.2069 8.06567 38.3502 7.7199 38.3502 7.35938C38.3502 6.99885 38.2069 6.65308 37.952 6.39815C37.6971 6.14322 37.3513 6 36.9908 6H28.8345C28.474 6 28.1282 6.14322 27.8733 6.39815C27.6184 6.65308 27.4752 6.99885 27.4752 7.35938C27.4752 7.7199 27.6184 8.06567 27.8733 8.3206C28.1282 8.57553 28.474 8.71875 28.8345 8.71875ZM45.147 8.71875H53.3033C53.6638 8.71875 54.0096 8.57553 54.2645 8.3206C54.5194 8.06567 54.6627 7.7199 54.6627 7.35938C54.6627 6.99885 54.5194 6.65308 54.2645 6.39815C54.0096 6.14322 53.6638 6 53.3033 6H45.147C44.7865 6 44.4407 6.14322 44.1858 6.39815C43.9309 6.65308 43.7877 6.99885 43.7877 7.35938C43.7877 7.7199 43.9309 8.06567 44.1858 8.3206C44.4407 8.57553 44.7865 8.71875 45.147 8.71875ZM54.0781 90.2812H45.9219C45.5613 90.2812 45.2156 90.4245 44.9607 90.6794C44.7057 90.9343 44.5625 91.2801 44.5625 91.6406C44.5625 92.0012 44.7057 92.3469 44.9607 92.6018C45.2156 92.8568 45.5613 93 45.9219 93H54.0781C54.4387 93 54.7844 92.8568 55.0393 92.6018C55.2943 92.3469 55.4375 92.0012 55.4375 91.6406C55.4375 91.2801 55.2943 90.9343 55.0393 90.6794C54.7844 90.4245 54.4387 90.2812 54.0781 90.2812ZM92.1406 75.5239C91.7801 75.5239 91.4343 75.6671 91.1794 75.922C90.9245 76.177 90.7812 76.5227 90.7812 76.8833V85.0395C90.7812 85.4 90.9245 85.7458 91.1794 86.0007C91.4343 86.2557 91.7801 86.3989 92.1406 86.3989C92.5012 86.3989 92.8469 86.2557 93.1018 86.0007C93.3568 85.7458 93.5 85.4 93.5 85.0395V76.8833C93.5 76.5227 93.3568 76.177 93.1018 75.922C92.8469 75.6671 92.5012 75.5239 92.1406 75.5239ZM92.1406 42.8989C91.7801 42.8989 91.4343 43.0421 91.1794 43.297C90.9245 43.552 90.7812 43.8977 90.7812 44.2582V52.4145C90.7812 52.775 90.9245 53.1208 91.1794 53.3757C91.4343 53.6307 91.7801 53.7739 92.1406 53.7739C92.5012 53.7739 92.8469 53.6307 93.1018 53.3757C93.3568 53.1208 93.5 52.775 93.5 52.4145V44.2582C93.5 43.8977 93.3568 43.552 93.1018 43.297C92.8469 43.0421 92.5012 42.8989 92.1406 42.8989ZM12.7151 8.75953C12.9027 8.71875 13.0957 8.74322 13.2969 8.71875H20.6783C21.0388 8.71875 21.3846 8.57553 21.6395 8.3206C21.8944 8.06567 22.0377 7.7199 22.0377 7.35938C22.0377 6.99885 21.8944 6.65308 21.6395 6.39815C21.3846 6.14322 21.0388 6 20.6783 6H13.2969C12.8918 6.03806 12.6417 6.02175 12.3263 6.06525C11.9706 6.11749 11.6501 6.3085 11.4349 6.59648C11.2197 6.88446 11.1273 7.24596 11.178 7.60187C11.2287 7.95778 11.4183 8.27912 11.7054 8.49557C11.9924 8.71202 12.3535 8.80595 12.7096 8.75681L12.7151 8.75953ZM92.1406 26.5864C91.7801 26.5864 91.4343 26.7296 91.1794 26.9845C90.9245 27.2395 90.7812 27.5852 90.7812 27.9457V36.102C90.7812 36.4625 90.9245 36.8083 91.1794 37.0632C91.4343 37.3182 91.7801 37.4614 92.1406 37.4614C92.5012 37.4614 92.8469 37.3182 93.1018 37.0632C93.3568 36.8083 93.5 36.4625 93.5 36.102V27.9457C93.5 27.5852 93.3568 27.2395 93.1018 26.9845C92.8469 26.7296 92.5012 26.5864 92.1406 26.5864V26.5864ZM93.345 11.3614C93.2697 11.0084 93.0572 10.6998 92.7543 10.5036C92.4515 10.3073 92.0831 10.2393 91.7301 10.3147C91.3771 10.39 91.0686 10.6025 90.8723 10.9053C90.676 11.2082 90.608 11.5766 90.6834 11.9296C90.7448 12.2147 90.7775 12.5052 90.7812 12.7969V19.7895C90.7812 20.15 90.9245 20.4958 91.1794 20.7507C91.4343 21.0057 91.7801 21.1489 92.1406 21.1489C92.5012 21.1489 92.8469 21.0057 93.1018 20.7507C93.3568 20.4958 93.5 20.15 93.5 19.7895V12.7969C93.4972 12.3135 93.4453 11.8316 93.345 11.3587V11.3614ZM92.1406 59.2114C91.7801 59.2114 91.4343 59.3546 91.1794 59.6095C90.9245 59.8645 90.7812 60.2102 90.7812 60.5708V68.727C90.7812 69.0875 90.9245 69.4333 91.1794 69.6882C91.4343 69.9432 91.7801 70.0864 92.1406 70.0864C92.5012 70.0864 92.8469 69.9432 93.1018 69.6882C93.3568 69.4333 93.5 69.0875 93.5 68.727V60.5708C93.5 60.2102 93.3568 59.8645 93.1018 59.6095C92.8469 59.3546 92.5012 59.2114 92.1406 59.2114ZM21.4531 90.2812H13.2969C12.9363 90.2812 12.5906 90.4245 12.3357 90.6794C12.0807 90.9343 11.9375 91.2801 11.9375 91.6406C11.9375 92.0012 12.0807 92.3469 12.3357 92.6018C12.5906 92.8568 12.9363 93 13.2969 93H21.4531C21.8137 93 22.1594 92.8568 22.4143 92.6018C22.6693 92.3469 22.8125 92.0012 22.8125 91.6406C22.8125 91.2801 22.6693 90.9343 22.4143 90.6794C22.1594 90.4245 21.8137 90.2812 21.4531 90.2812ZM37.7656 90.2812H29.6094C29.2488 90.2812 28.9031 90.4245 28.6482 90.6794C28.3932 90.9343 28.25 91.2801 28.25 91.6406C28.25 92.0012 28.3932 92.3469 28.6482 92.6018C28.9031 92.8568 29.2488 93 29.6094 93H37.7656C38.1262 93 38.4719 92.8568 38.7268 92.6018C38.9818 92.3469 39.125 92.0012 39.125 91.6406C39.125 91.2801 38.9818 90.9343 38.7268 90.6794C38.4719 90.4245 38.1262 90.2812 37.7656 90.2812ZM87.8532 90.1181C87.4797 90.2279 87.0923 90.2829 86.7031 90.2812H78.5469C78.1863 90.2812 77.8406 90.4245 77.5857 90.6794C77.3307 90.9343 77.1875 91.2801 77.1875 91.6406C77.1875 92.0012 77.3307 92.3469 77.5857 92.6018C77.8406 92.8568 78.1863 93 78.5469 93H86.7031C87.3472 93 87.988 92.9085 88.6063 92.7281C88.9524 92.6268 89.244 92.3922 89.4171 92.0758C89.5902 91.7594 89.6306 91.3872 89.5293 91.0411C89.428 90.695 89.1933 90.4033 88.8769 90.2302C88.5606 90.0571 88.1884 90.0168 87.8423 90.1181H87.8532ZM70.3906 90.2812H62.2344C61.8738 90.2812 61.5281 90.4245 61.2732 90.6794C61.0182 90.9343 60.875 91.2801 60.875 91.6406C60.875 92.0012 61.0182 92.3469 61.2732 92.6018C61.5281 92.8568 61.8738 93 62.2344 93H70.3906C70.7512 93 71.0969 92.8568 71.3518 92.6018C71.6068 92.3469 71.75 92.0012 71.75 91.6406C71.75 91.2801 71.6068 90.9343 71.3518 90.6794C71.0969 90.4245 70.7512 90.2812 70.3906 90.2812Z" fill="#5370D5"/>
</svg>
