<svg width="100" height="100" viewBox="0 0 100 100" fill="none" xmlns="http://www.w3.org/2000/svg">
<path d="M39.4122 14.0625V15.5751V42.8025V44.3152H40.9248L37.8995 62.2777L37.7104 63.7903H37.9941V63.8848L39.5067 64.1685C42.9485 64.8788 45.4627 67.8602 45.4627 71.5426V73.0552H48.488H51.5132H54.5385V71.5426C54.5385 67.8293 57.1974 64.8455 60.6836 64.1685L62.1017 63.8848V63.7903H62.3853L62.1017 62.2777L59.0764 44.3152H60.589V42.8025V15.5751V14.0625H59.0764H40.9248H39.4122ZM42.4374 17.0878H57.5638V35.2394H42.4374V17.0878ZM5.75608 30.7015C5.42328 30.7872 5.12961 30.9838 4.92341 31.2587C4.7172 31.5336 4.61076 31.8706 4.6216 32.2141V38.2646C4.62164 38.6658 4.78102 39.0505 5.06469 39.3342C5.34835 39.6178 5.73307 39.7772 6.13424 39.7773H7.74141C7.78005 57.5067 18.7934 72.8582 34.4961 79.1057H13.6974V77.5931C13.6974 77.1919 13.538 76.8072 13.2543 76.5235C12.9707 76.2399 12.5859 76.0805 12.1848 76.0805H6.13424C6.10273 76.0795 6.0712 76.0795 6.0397 76.0805C5.65514 76.1046 5.29428 76.2745 5.03075 76.5556C4.76722 76.8367 4.62089 77.2078 4.6216 77.5931V83.6436C4.62164 84.0448 4.78102 84.4295 5.06469 84.7132C5.34835 84.9968 5.73307 85.1562 6.13424 85.1562H12.1848C12.5859 85.1562 12.9707 84.9968 13.2543 84.7132C13.538 84.4295 13.6974 84.0448 13.6974 83.6436V82.131H45.4627V83.6436C45.4627 84.0448 45.6221 84.4295 45.9058 84.7132C46.1894 84.9968 46.5742 85.1562 46.9753 85.1562H53.0259C53.427 85.1562 53.8117 84.9968 54.0954 84.7132C54.3791 84.4295 54.5384 84.0448 54.5385 83.6436V82.131H86.3038V83.6436C86.3038 84.0448 86.4632 84.4295 86.7469 84.7132C87.0305 84.9968 87.4152 85.1562 87.8164 85.1562H93.8669C94.2681 85.1562 94.6528 84.9968 94.9365 84.7132C95.2202 84.4295 95.3795 84.0448 95.3796 83.6436V77.5931C95.3795 77.1919 95.2202 76.8072 94.9365 76.5235C94.6528 76.2399 94.2681 76.0805 93.8669 76.0805H87.8164C87.7849 76.0795 87.7534 76.0795 87.7219 76.0805C87.3373 76.1046 86.9765 76.2745 86.7129 76.5556C86.4494 76.8367 86.3031 77.2078 86.3038 77.5931V79.1057H65.5996C81.3189 72.8699 92.3158 57.525 92.3543 39.7773H93.8669C94.2681 39.7772 94.6528 39.6178 94.9365 39.3342C95.2202 39.0505 95.3795 38.6658 95.3796 38.2646V32.2141C95.3795 31.8129 95.2202 31.4282 94.9365 31.1445C94.6528 30.8609 94.2681 30.7015 93.8669 30.7015H87.8164C87.7849 30.7005 87.7534 30.7005 87.7219 30.7015C87.3373 30.7256 86.9765 30.8955 86.7129 31.1766C86.4494 31.4577 86.3031 31.8288 86.3038 32.2141V38.2646C86.3038 38.6658 86.4632 39.0505 86.7469 39.3342C87.0305 39.6178 87.4152 39.7772 87.8164 39.7773H89.329C89.2824 59.8162 74.254 76.4494 54.5385 78.7276V77.5931C54.5384 77.1919 54.3791 76.8072 54.0954 76.5235C53.8117 76.2399 53.427 76.0805 53.0259 76.0805H46.9753C46.9438 76.0795 46.9123 76.0795 46.8808 76.0805C46.4962 76.1046 46.1354 76.2745 45.8718 76.5556C45.6083 76.8367 45.462 77.2078 45.4627 77.5931V78.7276C25.7772 76.4268 10.8132 59.8002 10.7667 39.7773H12.1848C12.5859 39.7772 12.9707 39.6178 13.2543 39.3342C13.538 39.0505 13.6974 38.6658 13.6974 38.2646V32.2141C13.6974 31.8129 13.538 31.4282 13.2543 31.1445C12.9707 30.8609 12.5859 30.7015 12.1848 30.7015H6.13424C6.10273 30.7005 6.0712 30.7005 6.0397 30.7015C5.94537 30.6926 5.85041 30.6926 5.75608 30.7015V30.7015ZM7.64687 33.7267H10.6721V36.752H7.64687V33.7267ZM89.329 33.7267H92.3543V36.752H89.329V33.7267ZM42.4374 38.2646H57.5638V41.2899H42.4374V38.2646ZM44.0446 44.3152H56.0511V44.5988L58.8873 61.4268C54.6175 62.7997 51.5132 66.836 51.5132 71.5426V63.7903C53.2865 63.1715 54.5385 61.4138 54.5385 59.4415C54.5385 56.9532 52.4889 54.9036 50.0006 54.9036C47.5123 54.9036 45.4627 56.9532 45.4627 59.4415C45.4627 61.4138 46.7147 63.1715 48.488 63.7903V71.5426C48.488 66.8316 45.3809 62.8811 41.1139 61.5214L43.9501 44.5988L44.0446 44.3152ZM50.0006 57.9289C50.8539 57.9289 51.5132 58.5881 51.5132 59.4415C51.5132 60.2949 50.8539 60.9541 50.0006 60.9541C49.1472 60.9541 48.488 60.2949 48.488 59.4415C48.488 58.5881 49.1472 57.9289 50.0006 57.9289ZM7.64687 79.1057H10.6721V82.131H7.64687V79.1057ZM48.488 79.1057H51.5132V82.131H48.488V79.1057ZM89.329 79.1057H92.3543V82.131H89.329V79.1057Z" fill="#5370D5"/>
</svg>
