<svg width="100" height="100" viewBox="0 0 100 100" fill="none" xmlns="http://www.w3.org/2000/svg">
<g clip-path="url(#clip0)">
<path d="M45.3125 12.8034V9.65395C36.2253 10.7231 27.7636 14.8237 21.2937 21.2937C14.8237 27.7636 10.7231 36.2253 9.65395 45.3125H12.8034C13.8559 37.0583 17.6195 29.3872 23.5034 23.5034C29.3872 17.6195 37.0583 13.8559 45.3125 12.8034V12.8034ZM12.8034 54.6875H9.65395C10.7231 63.7747 14.8237 72.2364 21.2937 78.7063C27.7636 85.1763 36.2253 89.2769 45.3125 90.346V87.1966C37.0583 86.1441 29.3872 82.3805 23.5034 76.4966C17.6195 70.6128 13.8559 62.9417 12.8034 54.6875V54.6875ZM50 21.875C50.4144 21.875 50.8118 21.7104 51.1048 21.4173C51.3979 21.1243 51.5625 20.7269 51.5625 20.3125V1.5625C51.5625 1.1481 51.3979 0.750671 51.1049 0.457646C50.8118 0.16462 50.4144 0 50 0C49.5856 0 49.1882 0.16462 48.8951 0.457646C48.6021 0.750671 48.4375 1.1481 48.4375 1.5625V20.3125C48.4375 20.7269 48.6021 21.1243 48.8952 21.4173C49.1882 21.7104 49.5856 21.875 50 21.875V21.875ZM50 78.125C49.5856 78.125 49.1882 78.2896 48.8952 78.5827C48.6021 78.8757 48.4375 79.2731 48.4375 79.6875V98.4375C48.4375 98.8519 48.6021 99.2493 48.8951 99.5424C49.1882 99.8354 49.5856 100 50 100C50.4144 100 50.8118 99.8354 51.1049 99.5424C51.3979 99.2493 51.5625 98.8519 51.5625 98.4375V79.6875C51.5625 79.2731 51.3979 78.8757 51.1048 78.5827C50.8118 78.2896 50.4144 78.125 50 78.125V78.125ZM98.4375 48.4375H79.6875C79.2731 48.4375 78.8757 48.6021 78.5826 48.8951C78.2896 49.1882 78.125 49.5856 78.125 50C78.125 50.4144 78.2896 50.8118 78.5826 51.1049C78.8757 51.3979 79.2731 51.5625 79.6875 51.5625H98.4375C98.8519 51.5625 99.2493 51.3979 99.5424 51.1049C99.8354 50.8118 100 50.4144 100 50C100 49.5856 99.8354 49.1882 99.5424 48.8951C99.2493 48.6021 98.8519 48.4375 98.4375 48.4375ZM21.875 50C21.875 49.5856 21.7104 49.1882 21.4173 48.8952C21.1243 48.6021 20.7269 48.4375 20.3125 48.4375H1.5625C1.1481 48.4375 0.750671 48.6021 0.457646 48.8951C0.16462 49.1882 0 49.5856 0 50C0 50.4144 0.16462 50.8118 0.457646 51.1049C0.750671 51.3979 1.1481 51.5625 1.5625 51.5625H20.3125C20.7269 51.5625 21.1243 51.3979 21.4173 51.1048C21.7104 50.8118 21.875 50.4144 21.875 50V50ZM63.0537 30.5442C58.2215 27.2948 52.3547 25.9556 46.5911 26.7865C40.8275 27.6174 35.5779 30.5591 31.8602 35.0411C28.1426 39.5231 26.2219 45.2261 26.4707 51.0439C26.7194 56.8618 29.1199 62.3799 33.2066 66.5283C37.2932 70.6766 42.7748 73.1594 48.5883 73.4953C54.4018 73.8311 60.1329 71.9961 64.6701 68.346C69.2073 64.6959 72.2272 59.4909 73.1443 53.7404C74.0614 47.9899 72.8103 42.1037 69.6335 37.2233L67.3791 39.4949C69.9665 43.7637 70.8957 48.8341 69.9902 53.743C69.0848 58.6518 66.4077 63.057 62.4676 66.1217C58.5275 69.1864 53.5989 70.697 48.6182 70.3665C43.6375 70.036 38.9517 67.8875 35.451 64.3291C31.9503 60.7708 29.8787 56.0505 29.6297 51.065C29.3807 46.0796 30.9717 41.1764 34.1004 37.2869C37.229 33.3974 41.6774 30.7927 46.6004 29.9676C51.5234 29.1425 56.578 30.1544 60.8038 32.8113L63.0537 30.5442ZM68.7912 14.0556L68.8238 14.0247C64.4218 11.7079 59.6289 10.226 54.6875 9.65395V12.8034C59.1229 13.3611 63.4214 14.7135 67.377 16.7959C67.5256 15.749 68.024 14.7832 68.7912 14.0556V14.0556ZM82.9341 32.1059C85.1704 36.2019 86.6163 40.682 87.1966 45.3125H90.346C89.7401 40.0717 88.1115 35.0008 85.5524 30.3873L84.8495 31.044C84.3044 31.5449 83.6478 31.9089 82.9341 32.1059V32.1059Z" fill="#5370D5"/>
<path d="M50.9379 47.1887L50.884 47.13L51.152 46.2532C51.2732 45.8569 51.232 45.4287 51.0375 45.0628C50.843 44.6969 50.5111 44.4232 50.1148 44.302C49.7185 44.1808 49.2903 44.222 48.9244 44.4165C48.5585 44.611 48.2848 44.9429 48.1636 45.3392L46.162 51.8867C46.0818 52.1489 46.072 52.4276 46.1337 52.6948C46.1954 52.962 46.3263 53.2083 46.5134 53.4088C46.7013 53.6081 46.9378 53.7551 47.1997 53.8354C47.4616 53.9156 47.7399 53.9264 48.0072 53.8665L54.6257 52.3414C54.8257 52.2953 55.0146 52.2103 55.1818 52.0912C55.3489 51.9721 55.4909 51.8212 55.5997 51.6472C55.7085 51.4732 55.782 51.2795 55.816 51.0771C55.8499 50.8747 55.8437 50.6676 55.7976 50.4676C55.7515 50.2677 55.6665 50.0787 55.5474 49.9116C55.4283 49.7445 55.2774 49.6025 55.1034 49.4936C54.9294 49.3848 54.7357 49.3113 54.5333 49.2774C54.3309 49.2434 54.1238 49.2497 53.9238 49.2958C53.9238 49.2958 53.0582 49.4953 53.0551 49.4919L73.6981 28.6918L81.5521 29.1785C81.585 29.1808 81.617 29.1816 81.649 29.1816C82.0451 29.1818 82.4265 29.0312 82.7156 28.7605L94.0353 18.1838C94.2446 17.9884 94.3961 17.7393 94.4733 17.4636C94.5506 17.188 94.5506 16.8964 94.4733 16.6207C94.3961 16.3451 94.2446 16.0959 94.0353 15.9005C93.8261 15.7051 93.5672 15.571 93.2869 15.5128L86.0191 14.0014L84.5375 6.71997C84.4819 6.44671 84.3542 6.19331 84.1677 5.98606C83.9811 5.7788 83.7425 5.62525 83.4766 5.54133C83.2107 5.45741 82.9271 5.44619 82.6554 5.50882C82.3837 5.57145 82.1337 5.70566 81.9313 5.89752L70.9419 16.3223C70.7731 16.4823 70.6422 16.6779 70.5587 16.8949C70.4751 17.1119 70.4411 17.3448 70.459 17.5766L71.1727 26.7993L50.9379 47.1887ZM81.0738 26.0178L76.6255 25.7422L85.2656 17.0363L89.6996 17.9588L81.0738 26.0178ZM73.632 18.0771L82.0373 10.1044L83.0076 14.8741L74.0801 23.8697L73.632 18.0771ZM54.6875 87.1966V90.346C58.401 89.9152 62.0364 88.9696 65.4892 87.5364C64.8843 86.6765 64.3635 85.7603 63.9341 84.8006C60.9677 85.9934 57.8599 86.7987 54.6875 87.1966V87.1966ZM87.1966 54.6875C86.8401 57.5159 86.1595 60.294 85.1682 62.9669C86.1423 63.3711 87.075 63.8684 87.9533 64.452C89.1554 61.3098 89.9593 58.0295 90.3461 54.6875H87.1966ZM78.9063 64.8438C76.2795 64.8438 73.7117 65.6227 71.5276 67.082C69.3435 68.5414 67.6412 70.6157 66.636 73.0425C65.6308 75.4693 65.3678 78.1397 65.8802 80.716C66.3927 83.2924 67.6576 85.6588 69.515 87.5163C71.3724 89.3737 73.7389 90.6386 76.3152 91.1511C78.8915 91.6635 81.5619 91.4005 83.9888 90.3953C86.4156 89.3901 88.4899 87.6878 89.9492 85.5037C91.4086 83.3196 92.1875 80.7518 92.1875 78.125C92.1836 74.6038 90.7831 71.2279 88.2932 68.7381C85.8033 66.2482 82.4275 64.8477 78.9063 64.8438V64.8438ZM78.9063 88.2813C76.8975 88.2813 74.9339 87.6856 73.2638 86.5696C71.5936 85.4536 70.2918 83.8674 69.5231 82.0116C68.7544 80.1558 68.5533 78.1137 68.9452 76.1436C69.337 74.1735 70.3043 72.3638 71.7247 70.9434C73.1451 69.5231 74.9548 68.5558 76.9249 68.1639C78.895 67.772 80.9371 67.9731 82.7929 68.7418C84.6487 69.5106 86.2349 70.8123 87.3509 72.4825C88.4669 74.1527 89.0625 76.1163 89.0625 78.125C89.0594 80.8177 87.9884 83.3991 86.0844 85.3031C84.1804 87.2071 81.5989 88.2781 78.9063 88.2813V88.2813Z" fill="#5370D5"/>
<path d="M46.9503 41.9755C47.534 41.5603 48.2052 41.2847 48.9123 41.1698C49.6193 41.055 50.3433 41.104 51.0284 41.3132C51.2433 41.3816 51.4523 41.4673 51.6533 41.5695C51.779 41.5941 51.9012 41.6272 52.0248 41.6572L54.4859 39.1773C51.9853 38.1293 49.1999 37.9751 46.599 38.7407C43.998 39.5063 41.7403 41.1449 40.2063 43.3805C38.6723 45.6162 37.9556 48.3122 38.1771 51.0144C38.3985 53.7167 39.5445 56.2601 41.4221 58.2161C43.2996 60.1722 45.7939 61.4214 48.4848 61.7533C51.1758 62.0853 53.8989 61.4796 56.1954 60.0385C58.492 58.5973 60.2217 56.4086 61.0932 53.8412C61.9647 51.2737 61.9247 48.4844 60.9799 45.943L58.4524 48.4897C58.4742 48.6119 58.4924 48.7352 58.509 48.8591C58.6535 49.148 58.7654 49.4521 58.8425 49.7658C59.0278 50.5706 58.997 51.41 58.7532 52.1991C58.5094 52.9881 58.0613 53.6986 57.4543 54.2586C56.7719 55.4555 55.8116 56.4707 54.6545 57.2184C53.4973 57.9661 52.1772 58.4245 50.8057 58.5547C49.4341 58.685 48.0513 58.4833 46.7741 57.9667C45.4969 57.4502 44.3627 56.6339 43.4672 55.5868C42.5718 54.5398 41.9415 53.2926 41.6294 51.9507C41.3174 50.6088 41.3328 49.2115 41.6743 47.8767C42.0159 46.542 42.6735 45.3091 43.5918 44.282C44.5101 43.2549 45.662 42.4638 46.9503 41.9755V41.9755ZM82.6012 74.1837L77.0073 78.7842L75.283 77.1805C75.133 77.0401 74.9567 76.9307 74.7643 76.8586C74.5719 76.7865 74.3671 76.753 74.1617 76.7602C73.9564 76.7673 73.7544 76.8148 73.5675 76.9001C73.3805 76.9854 73.2123 77.1068 73.0723 77.2572C72.9323 77.4076 72.8233 77.5842 72.7517 77.7768C72.68 77.9693 72.6471 78.1742 72.6547 78.3795C72.6624 78.5849 72.7104 78.7867 72.7962 78.9734C72.8819 79.1602 73.0037 79.3281 73.1544 79.4678L75.8797 82.003C76.1567 82.2609 76.5179 82.4095 76.8962 82.4211C77.2745 82.4328 77.6442 82.3067 77.9365 82.0663L84.5863 76.5976C84.7452 76.4674 84.8769 76.3071 84.9738 76.1259C85.0707 75.9448 85.1309 75.7463 85.151 75.5418C85.1711 75.3374 85.1507 75.131 85.091 74.9344C85.0312 74.7378 84.9333 74.555 84.8028 74.3963C84.6723 74.2376 84.5118 74.1062 84.3305 74.0097C84.1492 73.9131 83.9506 73.8532 83.7461 73.8334C83.5416 73.8137 83.3352 73.8345 83.1388 73.8945C82.9423 73.9546 82.7596 74.0529 82.6012 74.1836L82.6012 74.1837Z" fill="#5370D5"/>
</g>
<defs>
<clipPath id="clip0">
<rect width="100" height="100" fill="white"/>
</clipPath>
</defs>
</svg>
