<svg width="100" height="100" viewBox="0 0 100 100" fill="none" xmlns="http://www.w3.org/2000/svg">
<path d="M16.6667 74.1071H39.3778C37.964 73.4426 36.6164 72.6453 35.3532 71.7262H16.6667C16.0368 71.727 15.4323 71.4778 14.9859 71.0334C14.5396 70.5889 14.2877 69.9856 14.2857 69.3557V33.6205C14.2877 32.9906 14.5396 32.3872 14.986 31.9428C15.4323 31.4984 16.0368 31.2492 16.6667 31.25H35.3751C36.6375 30.3329 37.9828 29.5358 39.3934 28.869H16.6667C16.042 28.8683 15.4233 28.9906 14.8459 29.229C14.2685 29.4674 13.7437 29.8172 13.3015 30.2584C12.8593 30.6996 12.5084 31.2236 12.2687 31.8005C12.0291 32.3774 11.9054 32.9958 11.9048 33.6205V69.3557C11.9055 69.9804 12.0292 70.5988 12.2688 71.1756C12.5085 71.7525 12.8595 72.2765 13.3016 72.7177C13.7438 73.1589 14.2686 73.5087 14.846 73.7471C15.4233 73.9855 16.042 74.1078 16.6667 74.1071V74.1071ZM83.3334 31.25C83.9632 31.2492 84.5677 31.4984 85.0141 31.9428C85.4605 32.3872 85.7123 32.9906 85.7143 33.6205V69.3557C85.7123 69.9856 85.4605 70.5889 85.0141 71.0334C84.5677 71.4778 83.9632 71.7269 83.3334 71.7262H64.6345C63.3673 72.6452 62.0161 73.4424 60.599 74.1071H83.3334C84.5949 74.1085 85.8053 73.6086 86.6983 72.7176C87.5913 71.8265 88.0938 70.6172 88.0953 69.3557V33.6205C88.0946 32.9958 87.9709 32.3774 87.7312 31.8005C87.4915 31.2237 87.1406 30.6997 86.6984 30.2585C86.2562 29.8173 85.7314 29.4675 85.1541 29.2291C84.5767 28.9907 83.958 28.8683 83.3334 28.869H60.6C62.0122 29.5356 63.359 30.3327 64.6228 31.25H83.3334ZM83.9286 11.6071C84.2818 11.6071 84.627 11.5024 84.9207 11.3062C85.2143 11.11 85.4432 10.8311 85.5784 10.5048C85.7135 10.1785 85.7489 9.81944 85.68 9.47305C85.6111 9.12665 85.441 8.80847 85.1913 8.55873C84.9415 8.309 84.6234 8.13892 84.277 8.07002C83.9306 8.00112 83.5715 8.03648 83.2452 8.17164C82.9189 8.3068 82.64 8.53568 82.4438 8.82934C82.2476 9.12299 82.1429 9.46824 82.1429 9.82143C82.1434 10.2949 82.3317 10.7487 82.6665 11.0835C83.0013 11.4183 83.4552 11.6066 83.9286 11.6071ZM83.9286 8.92857C84.1052 8.92857 84.2778 8.98093 84.4246 9.07904C84.5715 9.17715 84.6859 9.3166 84.7535 9.47974C84.8211 9.64289 84.8387 9.82242 84.8043 9.99561C84.7698 10.1688 84.6848 10.3279 84.5599 10.4528C84.4351 10.5776 84.276 10.6627 84.1028 10.6971C83.9296 10.7316 83.7501 10.7139 83.5869 10.6463C83.4238 10.5787 83.2843 10.4643 83.1862 10.3175C83.0881 10.1706 83.0357 9.99802 83.0357 9.82143C83.036 9.5847 83.1301 9.35773 83.2975 9.19034C83.4649 9.02294 83.6919 8.9288 83.9286 8.92857ZM67.2619 25.2976C67.6151 25.2976 67.9604 25.1929 68.254 24.9967C68.5477 24.8005 68.7765 24.5216 68.9117 24.1953C69.0469 23.869 69.0822 23.5099 69.0133 23.1635C68.9444 22.8171 68.7744 22.4989 68.5246 22.2492C68.2749 21.9995 67.9567 21.8294 67.6103 21.7605C67.2639 21.6916 66.9049 21.727 66.5786 21.8621C66.2523 21.9973 65.9734 22.2262 65.7772 22.5198C65.5809 22.8135 65.4762 23.1587 65.4762 23.5119C65.4767 23.9853 65.6651 24.4392 65.9998 24.774C66.3346 25.1088 66.7885 25.2971 67.2619 25.2976ZM67.2619 22.619C67.4385 22.619 67.6111 22.6714 67.758 22.7695C67.9048 22.8676 68.0192 23.0071 68.0868 23.1702C68.1544 23.3334 68.1721 23.5129 68.1376 23.6861C68.1032 23.8593 68.0181 24.0184 67.8933 24.1432C67.7684 24.2681 67.6093 24.3532 67.4361 24.3876C67.2629 24.4221 67.0834 24.4044 66.9202 24.3368C66.7571 24.2692 66.6176 24.1548 66.5195 24.0079C66.4214 23.8611 66.3691 23.6885 66.3691 23.5119C66.3693 23.2752 66.4634 23.0482 66.6308 22.8808C66.7982 22.7134 67.0252 22.6193 67.2619 22.619ZM36.9048 5.05952C37.258 5.05952 37.6032 4.95479 37.8969 4.75857C38.1905 4.56236 38.4194 4.28347 38.5546 3.95717C38.6897 3.63087 38.7251 3.27182 38.6562 2.92543C38.5873 2.57904 38.4172 2.26085 38.1675 2.01112C37.9177 1.76138 37.5995 1.59131 37.2532 1.5224C36.9068 1.4535 36.5477 1.48886 36.2214 1.62402C35.8951 1.75918 35.6162 1.98806 35.42 2.28172C35.2238 2.57538 35.1191 2.92062 35.1191 3.27381C35.1196 3.74724 35.3079 4.20113 35.6427 4.5359C35.9775 4.87067 36.4313 5.05898 36.9048 5.05952V5.05952ZM36.9048 2.38095C37.0814 2.38095 37.254 2.43331 37.4008 2.53142C37.5477 2.62953 37.6621 2.76898 37.7297 2.93212C37.7972 3.09527 37.8149 3.2748 37.7805 3.44799C37.746 3.62119 37.661 3.78028 37.5361 3.90515C37.4113 4.03002 37.2522 4.11506 37.079 4.14951C36.9058 4.18396 36.7262 4.16628 36.5631 4.0987C36.3999 4.03112 36.2605 3.91668 36.1624 3.76985C36.0643 3.62302 36.0119 3.4504 36.0119 3.27381C36.0122 3.03708 36.1063 2.81011 36.2737 2.64272C36.4411 2.47533 36.668 2.38118 36.9048 2.38095V2.38095ZM94.6429 36.6071C94.6429 36.254 94.5382 35.9087 94.3419 35.6151C94.1457 35.3214 93.8668 35.0925 93.5405 34.9574C93.2142 34.8222 92.8552 34.7868 92.5088 34.8557C92.1624 34.9246 91.8442 35.0947 91.5945 35.3445C91.3447 35.5942 91.1747 35.9124 91.1058 36.2588C91.0369 36.6052 91.0722 36.9642 91.2074 37.2905C91.3425 37.6168 91.5714 37.8957 91.8651 38.0919C92.1587 38.2881 92.504 38.3929 92.8572 38.3929C93.3306 38.3923 93.7845 38.204 94.1193 37.8692C94.454 37.5345 94.6423 37.0806 94.6429 36.6071V36.6071ZM91.9643 36.6071C91.9643 36.4306 92.0167 36.2579 92.1148 36.1111C92.2129 35.9643 92.3523 35.8498 92.5155 35.7822C92.6786 35.7147 92.8582 35.697 93.0313 35.7314C93.2045 35.7659 93.3636 35.8509 93.4885 35.9758C93.6134 36.1007 93.6984 36.2598 93.7329 36.433C93.7673 36.6062 93.7496 36.7857 93.6821 36.9488C93.6145 37.112 93.5 37.2514 93.3532 37.3495C93.2064 37.4476 93.0338 37.5 92.8572 37.5C92.6204 37.4998 92.3935 37.4056 92.2261 37.2382C92.0587 37.0708 91.9645 36.8439 91.9643 36.6071V36.6071ZM7.14287 27.6786C6.90742 27.6786 6.67725 27.7484 6.48148 27.8792C6.2857 28.01 6.13312 28.1959 6.04301 28.4135C5.95291 28.631 5.92933 28.8704 5.97527 29.1013C6.0212 29.3322 6.13458 29.5443 6.30108 29.7108C6.46757 29.8773 6.67969 29.9907 6.91062 30.0366C7.14155 30.0826 7.38091 30.059 7.59844 29.9689C7.81598 29.8788 8.0019 29.7262 8.13271 29.5304C8.26353 29.3347 8.33335 29.1045 8.33335 28.869C8.33298 28.5534 8.20744 28.2508 7.98426 28.0277C7.76109 27.8045 7.45849 27.6789 7.14287 27.6786V27.6786ZM7.14287 29.4643C7.02514 29.4643 6.91006 29.4294 6.81217 29.364C6.71429 29.2986 6.63799 29.2056 6.59294 29.0968C6.54789 28.9881 6.5361 28.8684 6.55907 28.7529C6.58204 28.6375 6.63873 28.5314 6.72197 28.4481C6.80522 28.3649 6.91128 28.3082 7.02674 28.2852C7.14221 28.2623 7.26189 28.2741 7.37066 28.3191C7.47942 28.3642 7.57239 28.4405 7.63779 28.5383C7.7032 28.6362 7.73811 28.7513 7.73811 28.869C7.73795 29.0269 7.67519 29.1782 7.56359 29.2898C7.452 29.4014 7.30069 29.4641 7.14287 29.4643V29.4643Z" fill="#5370D5"/>
<path d="M1.19048 81.25C1.84796 81.25 2.38095 80.717 2.38095 80.0595C2.38095 79.402 1.84796 78.869 1.19048 78.869C0.532994 78.869 0 79.402 0 80.0595C0 80.717 0.532994 81.25 1.19048 81.25Z" fill="#5370D5"/>
<path d="M6.54763 78.869H4.76192C4.44618 78.869 4.14338 78.9945 3.92012 79.2177C3.69687 79.441 3.57144 79.7438 3.57144 80.0595C3.57144 80.3753 3.69687 80.6781 3.92012 80.9013C4.14338 81.1246 4.44618 81.25 4.76192 81.25H6.54763C6.86337 81.25 7.16617 81.1246 7.38943 80.9013C7.61268 80.6781 7.73811 80.3753 7.73811 80.0595C7.73811 79.7438 7.61268 79.441 7.38943 79.2177C7.16617 78.9945 6.86337 78.869 6.54763 78.869ZM95.2381 78.869H93.4524C93.1367 78.869 92.8339 78.9945 92.6106 79.2177C92.3873 79.441 92.2619 79.7438 92.2619 80.0595C92.2619 80.3753 92.3873 80.6781 92.6106 80.9013C92.8339 81.1246 93.1367 81.25 93.4524 81.25H95.2381C95.5539 81.25 95.8567 81.1246 96.0799 80.9013C96.3032 80.6781 96.4286 80.3753 96.4286 80.0595C96.4286 79.7438 96.3032 79.441 96.0799 79.2177C95.8567 78.9945 95.5539 78.869 95.2381 78.869Z" fill="#5370D5"/>
<path d="M98.8095 81.25C99.467 81.25 100 80.717 100 80.0595C100 79.402 99.467 78.869 98.8095 78.869C98.152 78.869 97.619 79.402 97.619 80.0595C97.619 80.717 98.152 81.25 98.8095 81.25Z" fill="#5370D5"/>
<path d="M89.7151 78.8691H57.1429V72.9538C61.5066 71.4998 65.3235 68.7503 68.0848 65.0717C70.846 61.3931 72.4204 56.9603 72.5981 52.3641L72.6191 50.7673L72.6016 50.6249C72.3717 44.9351 70.0089 39.5403 65.9831 35.513C61.9573 31.4857 56.5634 29.1209 50.8737 28.8888L49.2798 28.869L49.1368 28.8871C43.4479 29.1166 38.0537 31.4785 34.0266 35.5033C29.9996 39.5281 27.6346 44.921 27.4019 50.6098L27.381 52.206L27.3984 52.3484C27.5758 56.9474 29.1502 61.3833 31.9119 65.065C34.6736 68.7468 38.4916 71.4998 42.8572 72.9572V78.8691H10.2849C10.1156 78.8469 9.94345 78.8612 9.78004 78.9109C9.61663 78.9606 9.46571 79.0446 9.33735 79.1573C9.20899 79.2699 9.10615 79.4087 9.0357 79.5643C8.96525 79.7199 8.9288 79.8887 8.9288 80.0595C8.9288 80.2303 8.96525 80.3992 9.0357 80.5548C9.10615 80.7104 9.20899 80.8491 9.33735 80.9618C9.46571 81.0745 9.61663 81.1585 9.78004 81.2082C9.94345 81.2579 10.1156 81.2721 10.2849 81.25H89.7151C89.8844 81.2721 90.0566 81.2579 90.22 81.2082C90.3834 81.1585 90.5343 81.0745 90.6627 80.9618C90.791 80.8491 90.8939 80.7104 90.9643 80.5548C91.0348 80.3992 91.0712 80.2303 91.0712 80.0595C91.0712 79.8887 91.0348 79.7199 90.9643 79.5643C90.8939 79.4087 90.791 79.2699 90.6627 79.1573C90.5343 79.0446 90.3834 78.9606 90.22 78.9109C90.0566 78.8612 89.8844 78.8469 89.7151 78.8691ZM65.1693 64.8414C63.5078 63.3371 61.6318 62.0882 59.6029 61.1357C60.2026 58.3451 60.5329 55.5033 60.5893 52.6495H70.1759C69.9158 57.1587 68.1533 61.4508 65.1693 64.8414H65.1693ZM70.1759 50.3243H60.5893C60.5268 46.9682 60.0776 43.6306 59.2506 40.3774C61.0741 39.5591 62.7804 38.5015 64.3246 37.2326C67.817 40.7296 69.8999 45.3898 70.1759 50.3243H70.1759ZM62.504 35.6096C61.2838 36.5726 59.9562 37.3913 58.5479 38.0494C57.8477 35.8806 56.794 33.8424 55.4292 32.0173C58.0009 32.7377 60.4051 33.9584 62.504 35.6096V35.6096ZM51.162 31.4889C53.1988 32.2254 55.0787 34.8859 56.3924 38.9096C54.7009 39.4728 52.942 39.8091 51.162 39.9095V31.4889ZM51.162 42.32C53.163 42.2199 55.1417 41.8533 57.0458 41.2301C57.742 44.2133 58.1223 47.2615 58.1805 50.3243H51.162V42.32ZM58.1816 52.6495C58.1309 55.196 57.8623 57.7335 57.3789 60.2342C55.3739 59.5428 53.2813 59.1378 51.1632 59.0309L51.162 52.6495H58.1816ZM51.162 61.4432C53.0966 61.5521 55.0055 61.9396 56.8295 62.5936C55.5118 67.47 53.4714 70.6642 51.162 71.4873V61.4432ZM48.8381 31.4883V39.9095C47.058 39.809 45.2991 39.4726 43.6076 38.909C44.9224 34.8842 46.8012 32.2242 48.8381 31.4883ZM42.6223 60.2353C42.1392 57.7342 41.8707 55.1964 41.8195 52.6495H48.8381V59.0309C46.7197 59.1373 44.6271 59.5428 42.6223 60.2353ZM48.8381 61.4432V71.4873C46.5274 70.663 44.4871 67.4689 43.1716 62.5936C44.9952 61.9392 46.9037 61.5518 48.8381 61.4432V61.4432ZM41.8195 50.3243C41.8762 47.2619 42.2561 44.2139 42.953 41.2313C44.8574 41.8534 46.836 42.2195 48.8369 42.32L48.8381 50.3243L41.8195 50.3243ZM44.5731 32.0173C43.2071 33.8419 42.1529 35.8802 41.4534 38.0494C40.0451 37.3911 38.7175 36.5724 37.4971 35.6096C39.5962 33.958 42.0009 32.7372 44.5731 32.0173H44.5731ZM35.6753 37.2332C37.2202 38.5009 38.9264 39.558 40.7494 40.3768C39.9236 43.6304 39.4744 46.9681 39.4107 50.3243H29.8252C30.1 45.3899 32.1826 40.7296 35.6754 37.2332H35.6753ZM29.8252 52.6495H39.4107C39.467 55.5034 39.7981 58.3453 40.3995 61.1357C38.3699 62.0875 36.4934 63.3365 34.8319 64.8414C31.8471 61.4514 30.0844 57.1589 29.8252 52.6495V52.6495ZM36.5316 66.5527C37.8802 65.3461 39.3844 64.3256 41.004 63.5184C41.7149 66.2001 42.9249 68.7238 44.5708 70.9571C41.5893 70.1237 38.8389 68.6168 36.5316 66.5527V66.5527ZM54.7619 78.8691H45.2381V74.1071H54.7619V78.8691ZM55.428 70.9571C57.0744 68.7239 58.2849 66.2002 58.996 63.5184C60.6156 64.3256 62.1198 65.3461 63.4685 66.5527C61.1612 68.6175 58.4102 70.1244 55.428 70.9571V70.9571Z" fill="#5370D5"/>
<path d="M7.53632 44.9196L8.58572 43.5381L7.92263 43.1625L7.24882 44.7095H7.22679L6.54167 43.1738L5.86727 43.5601L6.90596 44.9083V44.9304L5.28156 44.7208V45.472L6.91727 45.2619V45.2839L5.86727 46.6321L6.49703 47.0298L7.21548 45.472H7.23751L7.9006 47.019L8.59703 46.6208L7.53632 45.2952V45.2732L9.20417 45.472V44.7208L7.53632 44.9417V44.9196Z" fill="#5370D5"/>
<path d="M17.2042 16.9762L18.0869 15.8155L17.5297 15.4994L16.9631 16.7994H16.944L16.369 15.5089L15.8018 15.8339L16.675 16.9673V16.9857L15.3095 16.8089V17.4405L16.6839 17.2643V17.2827L15.8018 18.4155L16.3309 18.75L16.9351 17.4405H16.9536L17.5107 18.7405L18.0958 18.4065L17.2042 17.2917V17.2732L18.6065 17.4405V16.8089L17.2042 16.9946V16.9762Z" fill="#5370D5"/>
<path d="M55.8197 8.67085L55.3095 9.32501L55.6155 9.51787L55.9643 8.76192H55.975L56.2964 9.51251L56.6345 9.31965L56.1197 8.67561V8.66489L56.9292 8.76192V8.39704L56.1197 8.50418V8.49346L56.6292 7.82323L56.3077 7.64108L55.9804 8.39168H55.9697L55.6375 7.64584L55.3095 7.83394L55.8143 8.48811V8.49882L55.0256 8.39704V8.76192L55.8197 8.66013V8.67085Z" fill="#5370D5"/>
<path d="M89.2857 23.2274V22.8345L88.4131 22.95V22.9381L88.9625 22.2155L88.6155 22.019L88.2625 22.8286H88.2512L87.8929 22.025L87.5399 22.2274L88.0833 22.9327V22.944L87.2333 22.8345V23.2274L88.0893 23.1179V23.1292L87.5399 23.8345L87.869 24.0429L88.2452 23.2274H88.2565L88.6036 24.0369L88.9679 23.8286L88.4131 23.1351V23.1232L89.2857 23.2274Z" fill="#5370D5"/>
<path d="M39.1274 19.3476L38.4411 20.2292L38.8524 20.4893L39.3226 19.4702H39.3369L39.7702 20.4821L40.2256 20.222L39.5321 19.3548V19.3405L40.6232 19.4702V18.9792L39.5321 19.1238V19.1089L40.2191 18.2059L39.7851 17.9607L39.3446 18.972H39.3298L38.8821 17.9673L38.4411 18.2202L39.1202 19.1024V19.1167L38.0577 18.9792V19.4702L39.1274 19.3333V19.3476Z" fill="#5370D5"/>
<path d="M70.3297 84.2262H65.3846C65.0853 84.2502 64.8061 84.386 64.6024 84.6066C64.3988 84.8272 64.2857 85.1164 64.2857 85.4167C64.2857 85.7169 64.3988 86.0061 64.6024 86.2267C64.8061 86.4473 65.0853 86.5832 65.3846 86.6071H70.3297C70.629 86.5832 70.9082 86.4473 71.1119 86.2267C71.3155 86.0061 71.4286 85.7169 71.4286 85.4167C71.4286 85.1164 71.3155 84.8272 71.1119 84.6066C70.9082 84.386 70.629 84.2502 70.3297 84.2262ZM34.6154 84.2262H29.6703C29.371 84.2502 29.0918 84.386 28.8881 84.6066C28.6845 84.8272 28.5714 85.1164 28.5714 85.4167C28.5714 85.7169 28.6845 86.0061 28.8881 86.2267C29.0918 86.4473 29.371 86.5832 29.6703 86.6071H34.6154C34.9147 86.5832 35.1939 86.4473 35.3976 86.2267C35.6012 86.0061 35.7143 85.7169 35.7143 85.4167C35.7143 85.1164 35.6012 84.8272 35.3976 84.6066C35.1939 84.386 34.9147 84.2502 34.6154 84.2262V84.2262ZM61.9048 84.2262H38.0952C37.7795 84.2262 37.4767 84.3516 37.2534 84.5749C37.0302 84.7981 36.9048 85.1009 36.9048 85.4167C36.9048 85.7324 37.0302 86.0352 37.2534 86.2585C37.4767 86.4817 37.7795 86.6071 38.0952 86.6071H47.5833V87.7976H42.8571C42.5414 87.7976 42.2386 87.923 42.0153 88.1463C41.7921 88.3696 41.6667 88.6724 41.6667 88.9881C41.6667 89.3038 41.7921 89.6066 42.0153 89.8299C42.2386 90.0531 42.5414 90.1786 42.8571 90.1786H57.7381C58.0538 90.1786 58.3566 90.0531 58.5799 89.8299C58.8031 89.6066 58.9286 89.3038 58.9286 88.9881C58.9286 88.6724 58.8031 88.3696 58.5799 88.1463C58.3566 87.923 58.0538 87.7976 57.7381 87.7976H52.4167V86.6071H61.9048C62.2205 86.6071 62.5233 86.4817 62.7465 86.2585C62.9698 86.0352 63.0952 85.7324 63.0952 85.4167C63.0952 85.1009 62.9698 84.7981 62.7465 84.5749C62.5233 84.3516 62.2205 84.2262 61.9048 84.2262Z" fill="#5370D5"/>
</svg>
